<svg width="652" height="118" viewBox="0 0 652 118" fill="none" xmlns="http://www.w3.org/2000/svg">
<path d="M57.8475 33.0647L51.7468 90.5022H64.1223L67.0347 63.0808C68.2781 62.3148 71.1192 61.0893 74.1405 61.0893C77.4726 61.0893 78.2757 63.0042 77.9757 65.8382L75.356 90.5022H87.7315L90.5459 63.9999C91.3261 56.6503 88.895 51.1414 78.3737 51.1414C74.1126 51.1414 70.9002 52.2125 68.0422 53.59L70.2229 33.0647H57.8475V33.0647Z" fill="black"/>
<path d="M126.862 75.4105C129.144 63.3885 129.284 51.1392 112.719 51.1392C100.726 51.1392 93.9333 57.566 92.4686 71.3557C91.0039 85.1442 96.5083 91.5723 109.276 91.5723C113.92 91.5723 119.428 90.7297 124.114 88.8938L125.13 79.3217C122.197 80.7028 117.74 81.8542 111.934 81.8542C105.896 81.8542 103.419 80.3964 104.259 75.4105H126.862V75.4105ZM111.899 60.3211C116.621 60.3211 117.19 63.6949 116.046 67.9137H105.054C105.567 63.0822 107.719 60.3211 111.899 60.3211V60.3211Z" fill="black"/>
<path d="M133.135 52.2115L129.069 90.4999H141.444L144.355 63.0846C145.6 62.3126 148.441 61.0871 151.462 61.0871C154.794 61.0871 155.597 63.002 155.298 65.836L152.678 90.4999H165.053L167.868 63.9977C168.648 56.6481 166.217 51.1392 155.695 51.1392C151.434 51.1392 146.424 52.3635 141.814 54.9654L140.56 52.2115H133.135V52.2115Z" fill="black"/>
<path d="M194.751 81.2421C194.114 81.3953 192.534 81.7028 190.908 81.7028C186.96 81.7028 185.978 80.0165 186.296 77.0281L187.85 62.3911H197.449L198.53 52.2134H188.932L190.078 41.4133L177.353 44.707L176.515 52.5952L170.067 54.2791L169.205 62.3911H175.475L173.814 78.0238C172.855 87.0586 176.475 91.5742 187.305 91.5742C189.008 91.5742 191.982 91.2678 193.735 90.8082L194.751 81.2421V81.2421Z" fill="black"/>
<path d="M219.75 66.5498L212.626 67.2392C205.587 67.9286 197.767 69.4617 196.668 79.8057C196.058 85.5504 198.701 91.9773 208.527 91.9773C213.175 91.9773 217.29 90.4466 220.334 87.9979L221.726 90.905H229.152L231.796 66.0113C232.707 57.4361 230.703 51.5442 216.773 51.5442C211.271 51.5442 205.324 52.9217 202.572 54.0695L201.483 64.3262C205.041 62.8708 210.843 61.4155 215.724 61.4155C219.055 61.4155 220.198 62.3347 220.011 64.0964L219.75 66.5498V66.5498ZM219.042 73.2113L218.14 81.7135C216.768 82.9474 214.612 83.5613 212.364 83.5613C209.73 83.5613 208.05 81.875 208.35 79.0398C208.668 76.0513 210.242 74.365 213.777 73.9054L219.042 73.2113Z" fill="black"/>
<path d="M250.288 80.9309C247.81 80.9309 247.203 80.0884 247.358 78.633L250.164 52.2146H237.866L234.881 80.3181C234.092 87.7456 238.993 91.1158 245.645 91.1158C247.582 91.1158 249.239 90.8094 249.239 90.8094L250.288 80.9309ZM237.885 41.1034C237.446 45.236 240.284 48.3752 244.461 48.3752C248.562 48.3752 252.144 45.236 252.583 41.1034C253.014 37.0462 250.106 33.8315 246.006 33.8315C241.83 33.8315 238.316 37.0462 237.885 41.1034V41.1034Z" fill="black"/>
<path d="M275.085 91.5748C293.352 91.5748 299.527 79.3278 301.39 61.7837C303.253 44.2385 299.681 31.9927 281.414 31.9927C263.148 31.9927 256.973 44.2385 255.111 61.7837C253.247 79.3278 256.818 91.5748 275.085 91.5748ZM280.235 43.0895C287.902 43.0895 290.284 48.3758 288.86 61.7837C287.435 75.1904 283.931 80.4779 276.264 80.4779C268.598 80.4779 266.216 75.1904 267.641 61.7837C269.064 48.3758 272.568 43.0895 280.235 43.0895V43.0895Z" fill="black"/>
<path d="M326.68 55.5771C320.728 54.7345 318.62 53.4324 319.059 49.295C319.45 45.6172 323.225 43.6257 329.653 43.6257C335.54 43.6257 341.796 45.1576 344.806 46.6895L346.066 34.8243C343.513 33.3702 337.858 31.9927 329.96 31.9927C314.632 31.9927 307.481 38.8803 306.374 49.295C305.178 60.557 310.369 64.8476 324.872 66.7637C330.677 67.5296 332.459 68.985 331.996 73.3521C331.58 77.2597 328.74 79.9418 319.987 79.9418C312.324 79.9418 306.136 77.0299 303.591 75.498L302.258 88.0538C306.174 90.5024 313.718 91.5748 319.99 91.5748C333.695 91.5748 343.29 86.4464 344.803 72.2032C346.104 59.9442 339.342 57.34 326.68 55.5771V55.5771Z" fill="black"/>
<path d="M405.159 49.5248H416.846C416.677 39.2454 408.229 32.1484 395.386 32.1484C382.741 32.1484 373.476 39.1328 373.532 49.6093C373.504 58.1144 379.503 62.9865 389.247 65.324L395.527 66.9011C401.808 68.4219 405.3 70.2243 405.328 74.1107C405.3 78.3351 401.301 81.2077 395.105 81.2077C388.768 81.2077 384.206 78.2788 383.812 72.5055H372.011C372.321 84.9815 381.249 91.4307 395.246 91.4307C409.327 91.4307 417.607 84.6999 417.635 74.1389C417.607 64.5354 410.369 59.438 400.343 57.185L395.161 55.9458C390.148 54.7912 385.952 52.9324 386.036 48.7925C386.036 45.0751 389.331 42.3433 395.302 42.3433C401.132 42.3433 404.708 44.9906 405.159 49.5248Z" fill="black"/>
<path d="M444.259 47.3562H436.12V36.9924H424.123V47.3562H418.209V56.3683H424.123V78.8984C424.066 87.3753 429.84 91.5716 438.542 91.2054C441.64 91.0928 443.837 90.4732 445.048 90.0789L443.161 81.1514C442.569 81.264 441.302 81.5457 440.175 81.5457C437.782 81.5457 436.12 80.6445 436.12 77.3213V56.3683H444.259V47.3562Z" fill="black"/>
<path d="M460.048 91.4307C466.44 91.4307 470.58 88.6426 472.693 84.6154H473.03V90.614H484.408V61.4376C484.408 51.13 475.678 46.793 466.046 46.793C455.682 46.793 448.867 51.7496 447.205 59.6352L458.301 60.5364C459.118 57.6638 461.681 55.5516 465.99 55.5516C470.073 55.5516 472.411 57.6074 472.411 61.1559V61.3249C472.411 64.113 469.454 64.4791 461.934 65.2113C453.373 65.9999 445.685 68.8725 445.685 78.5323C445.685 87.0937 451.796 91.4307 460.048 91.4307ZM463.483 83.1509C459.794 83.1509 457.147 81.433 457.147 78.138C457.147 74.7585 459.935 73.0969 464.159 72.5055C466.778 72.1394 471.059 71.5198 472.495 70.5622V75.1527C472.495 79.6869 468.75 83.1509 463.483 83.1509Z" fill="black"/>
<path d="M512.363 47.3562H504.224V36.9924H492.227V47.3562H486.313V56.3683H492.227V78.8984C492.17 87.3753 497.944 91.5716 506.646 91.2054C509.744 91.0928 511.941 90.4732 513.152 90.0789L511.265 81.1514C510.673 81.264 509.406 81.5457 508.279 81.5457C505.886 81.5457 504.224 80.6445 504.224 77.3213V56.3683H512.363V47.3562Z" fill="black"/>
<path d="M543.556 72.1957C543.585 77.9972 539.614 81.0387 535.305 81.0387C530.771 81.0387 527.842 77.8564 527.814 72.7589V47.3562H515.816V74.8993C515.844 85.0097 521.759 91.1773 530.461 91.1773C536.966 91.1773 541.641 87.8259 543.585 82.7567H544.035V90.614H555.554V47.3562H543.556V72.1957Z" fill="black"/>
<path d="M596.78 59.6915C595.71 51.7215 589.289 46.793 578.362 46.793C567.294 46.793 560 51.9186 560.028 60.2547C560 66.7321 564.083 70.9284 572.532 72.6181L580.023 74.1107C583.797 74.8711 585.515 76.2511 585.571 78.4196C585.515 80.9824 582.727 82.813 578.531 82.813C574.25 82.813 571.406 80.9824 570.673 77.4621L558.873 78.0817C560 86.3615 567.04 91.4589 578.503 91.4589C589.711 91.4589 597.738 85.7419 597.766 77.2086C597.738 70.9565 593.654 67.2109 585.262 65.493L577.432 63.9159C573.405 63.0428 571.913 61.6629 571.941 59.5788C571.913 56.9879 574.841 55.2981 578.559 55.2981C582.727 55.2981 585.205 57.5793 585.797 60.3674L596.78 59.6915Z" fill="black"/>
</svg>
