<svg width="583" height="82" viewBox="0 0 583 82" fill="none" xmlns="http://www.w3.org/2000/svg">
<g clip-path="url(#clip0)">
<path d="M9.84747 14.0647L3.74683 71.5022H16.1223L19.0347 44.0808C20.2781 43.3148 23.1192 42.0893 26.1405 42.0893C29.4726 42.0893 30.2757 44.0042 29.9757 46.8382L27.356 71.5022H39.7315L42.5459 44.9999C43.3261 37.6503 40.895 32.1414 30.3737 32.1414C26.1126 32.1414 22.9002 33.2125 20.0422 34.59L22.2229 14.0647H9.84747V14.0647Z" fill="black"/>
<path d="M78.8615 56.4105C81.1438 44.3885 81.2841 32.1392 64.719 32.1392C52.7257 32.1392 45.9333 38.566 44.4686 52.3557C43.0039 66.1442 48.5083 72.5723 61.2756 72.5723C65.92 72.5723 71.428 71.7297 76.1136 69.8938L77.1296 60.3217C74.1965 61.7028 69.7396 62.8542 63.9341 62.8542C57.8963 62.8542 55.4193 61.3964 56.2587 56.4105H78.8615V56.4105ZM63.899 41.3211C68.6208 41.3211 69.1905 44.6949 68.0463 48.9137H57.0545C57.5673 44.0822 59.719 41.3211 63.899 41.3211V41.3211Z" fill="black"/>
<path d="M85.1349 33.2115L81.0686 71.4999H93.4441L96.3553 44.0846C97.5999 43.3126 100.441 42.0871 103.462 42.0871C106.794 42.0871 107.597 44.002 107.298 46.836L104.678 71.4999H117.053L119.868 44.9977C120.648 37.6481 118.217 32.1392 107.695 32.1392C103.434 32.1392 98.4235 33.3635 93.8142 35.9654L92.5599 33.2115H85.1349V33.2115Z" fill="black"/>
<path d="M146.751 62.2421C146.114 62.3953 144.534 62.7028 142.908 62.7028C138.96 62.7028 137.978 61.0165 138.296 58.0281L139.85 43.3911H149.449L150.53 33.2134H140.932L142.078 22.4133L129.353 25.707L128.515 33.5952L122.067 35.2791L121.205 43.3911H127.475L125.814 59.0238C124.855 68.0586 128.475 72.5742 139.305 72.5742C141.008 72.5742 143.982 72.2678 145.735 71.8082L146.751 62.2421V62.2421Z" fill="black"/>
<path d="M171.75 47.5498L164.626 48.2392C157.587 48.9286 149.767 50.4617 148.668 60.8057C148.058 66.5504 150.701 72.9773 160.527 72.9773C165.175 72.9773 169.29 71.4466 172.334 68.9979L173.726 71.905H181.152L183.796 47.0113C184.707 38.4361 182.703 32.5442 168.773 32.5442C163.271 32.5442 157.324 33.9217 154.572 35.0695L153.483 45.3262C157.041 43.8708 162.843 42.4155 167.724 42.4155C171.055 42.4155 172.198 43.3347 172.011 45.0964L171.75 47.5498V47.5498ZM171.042 54.2113L170.14 62.7135C168.768 63.9474 166.612 64.5613 164.364 64.5613C161.73 64.5613 160.05 62.875 160.35 60.0398C160.668 57.0513 162.242 55.365 165.777 54.9054L171.042 54.2113Z" fill="black"/>
<path d="M202.288 61.9309C199.81 61.9309 199.203 61.0884 199.358 59.633L202.164 33.2146H189.866L186.881 61.3181C186.092 68.7456 190.993 72.1158 197.645 72.1158C199.582 72.1158 201.239 71.8094 201.239 71.8094L202.288 61.9309ZM189.885 22.1034C189.446 26.236 192.284 29.3752 196.461 29.3752C200.562 29.3752 204.144 26.236 204.583 22.1034C205.014 18.0462 202.106 14.8315 198.006 14.8315C193.83 14.8315 190.316 18.0462 189.885 22.1034V22.1034Z" fill="black"/>
<path d="M227.085 72.5748C245.352 72.5748 251.527 60.3278 253.39 42.7837C255.253 25.2385 251.681 12.9927 233.414 12.9927C215.148 12.9927 208.973 25.2385 207.111 42.7837C205.247 60.3278 208.818 72.5748 227.085 72.5748ZM232.235 24.0895C239.902 24.0895 242.284 29.3758 240.86 42.7837C239.435 56.1904 235.931 61.4779 228.264 61.4779C220.598 61.4779 218.216 56.1904 219.641 42.7837C221.064 29.3758 224.568 24.0895 232.235 24.0895V24.0895Z" fill="black"/>
<path d="M278.68 36.5771C272.728 35.7345 270.62 34.4324 271.059 30.295C271.45 26.6172 275.225 24.6257 281.653 24.6257C287.54 24.6257 293.796 26.1576 296.806 27.6895L298.066 15.8243C295.513 14.3702 289.858 12.9927 281.96 12.9927C266.632 12.9927 259.481 19.8803 258.374 30.295C257.178 41.557 262.369 45.8476 276.872 47.7637C282.677 48.5296 284.459 49.985 283.996 54.3521C283.58 58.2597 280.74 60.9418 271.987 60.9418C264.324 60.9418 258.136 58.0299 255.591 56.498L254.258 69.0538C258.174 71.5024 265.718 72.5748 271.99 72.5748C285.695 72.5748 295.29 67.4464 296.803 53.2032C298.104 40.9442 291.342 38.34 278.68 36.5771V36.5771Z" fill="black"/>
<path d="M361.629 24.87H374.892C374.7 13.2045 365.112 5.15057 350.538 5.15057C336.188 5.15057 325.673 13.0767 325.737 24.9659C325.705 34.6179 332.513 40.147 343.571 42.7997L350.698 44.5895C357.825 46.3153 361.788 48.3608 361.82 52.7713C361.788 57.5653 357.25 60.8253 350.219 60.8253C343.028 60.8253 337.85 57.5014 337.403 50.9496H324.011C324.363 65.108 334.494 72.4268 350.379 72.4268C366.359 72.4268 375.755 64.7884 375.787 52.8033C375.755 41.9048 367.541 36.12 356.163 33.5632L350.283 32.157C344.594 30.8466 339.832 28.7372 339.928 24.0391C339.928 19.8203 343.667 16.7202 350.443 16.7202C357.058 16.7202 361.117 19.7244 361.629 24.87ZM406.001 22.4091H396.765V10.6477H383.15V22.4091H376.438V32.6364H383.15V58.2045C383.086 67.8246 389.638 72.5866 399.513 72.1712C403.029 72.0433 405.522 71.3402 406.896 70.8928L404.755 60.7614C404.084 60.8892 402.645 61.2088 401.367 61.2088C398.65 61.2088 396.765 60.1861 396.765 56.4148V32.6364H406.001V22.4091ZM423.919 72.4268C431.174 72.4268 435.872 69.2628 438.269 64.6925H438.652V71.5H451.564V38.3892C451.564 26.6918 441.657 21.7699 430.726 21.7699C418.965 21.7699 411.231 27.3949 409.345 36.3438L421.937 37.3665C422.864 34.1065 425.772 31.7095 430.662 31.7095C435.297 31.7095 437.949 34.0426 437.949 38.0696V38.2614C437.949 41.4254 434.593 41.8409 426.06 42.6719C416.344 43.5668 407.619 46.8267 407.619 57.7891C407.619 67.505 414.554 72.4268 423.919 72.4268ZM427.818 63.0305C423.631 63.0305 420.627 61.081 420.627 57.3416C420.627 53.5064 423.791 51.6207 428.585 50.9496C431.557 50.5341 436.415 49.831 438.045 48.7443V53.9538C438.045 59.0994 433.794 63.0305 427.818 63.0305ZM483.289 22.4091H474.052V10.6477H460.437V22.4091H453.726V32.6364H460.437V58.2045C460.373 67.8246 466.925 72.5866 476.801 72.1712C480.316 72.0433 482.809 71.3402 484.184 70.8928L482.042 60.7614C481.371 60.8892 479.933 61.2088 478.654 61.2088C475.938 61.2088 474.052 60.1861 474.052 56.4148V32.6364H483.289V22.4091ZM518.689 50.598C518.72 57.1818 514.214 60.6335 509.324 60.6335C504.179 60.6335 500.855 57.022 500.823 51.2372V22.4091H487.208V53.6662C487.24 65.1399 493.951 72.1392 503.827 72.1392C511.21 72.1392 516.515 68.3359 518.72 62.5831H519.232V71.5H532.304V22.4091H518.689V50.598ZM579.089 36.4077C577.875 27.3629 570.588 21.7699 558.187 21.7699C545.627 21.7699 537.349 27.5866 537.381 37.0469C537.349 44.3977 541.983 49.1598 551.571 51.0774L560.073 52.7713C564.356 53.6342 566.305 55.2003 566.369 57.6612C566.305 60.5696 563.141 62.647 558.379 62.647C553.521 62.647 550.293 60.5696 549.462 56.5746L536.071 57.2777C537.349 66.674 545.339 72.4588 558.347 72.4588C571.067 72.4588 580.176 65.9709 580.208 56.2869C580.176 49.1918 575.542 44.9411 566.017 42.9915L557.133 41.2017C552.562 40.2109 550.868 38.6449 550.9 36.2798C550.868 33.3395 554.192 31.4219 558.411 31.4219C563.141 31.4219 565.954 34.0107 566.625 37.1747L579.089 36.4077Z" fill="black"/>
</g>
<defs>
<clipPath id="clip0">
<rect width="583" height="82" fill="white"/>
</clipPath>
</defs>
</svg>
